# xmcd
# 
# Track frame offsets:
#     150
#     15986
#     37600
#     58683
#     83894
#     107754
#     123749
#     144600
#     163682
#     183244
#     205831
#     222313
# 
# Disc length: 3301
# 
# Revision: 3
# Processed by: cddbd v1.5.2PL0 Copyright (c) Steve Scherf et al.
# Submitted via: fre:ac v1.0.17
# 
DISCID=a00ce30c
DTITLE=Show of Hands - Witness
DYEAR=2006
DGENRE=Folk
TTITLE0=Witness
TTITLE1=Roots
TTITLE2=The Dive
TTITLE3=The Falmouth Packet - Haul Away Joe
TTITLE4=Undertow
TTITLE5=If I Needed Someone
TTITLE6=Innocents' Song - Gwithian
TTITLE7=Union Street (Last Post)
TTITLE8=The Bet
TTITLE9=Ink Devil
TTITLE10=Scratch
TTITLE11=All I'd Ever Lost
EXTD=
EXTT0=
EXTT1=
EXTT2=
EXTT3=
EXTT4=
EXTT5=
EXTT6=
EXTT7=
EXTT8=
EXTT9=
EXTT10=
EXTT11=
PLAYORDER=
